<svg viewBox="0 0 2134 2134" xmlns="http://www.w3.org/2000/svg" fill-rule="evenodd" clip-rule="evenodd" stroke-linejoin="round" stroke-miterlimit="2"><g fill-rule="nonzero"><path d="M297.316 1920.074L126.134 0H2007.2l-171.367 1919.78-770.32 213.553-768.197-213.259z" fill="#1872b5"/><path d="M1066.67 1970.102l622.452-172.57 146.446-1640.54H1066.67v1813.11z" fill="#51a3da"/><path d="M455.43 600.178l-23.05-222.183h1268.572l-14.751 257.216-536.558 236.934h514.432l-55.316 730.162-518.488 139.21-538.04-130.449-33.19-370.155h237.856l12.907 195.448 311.616 58.08 287.64-88.039 12.907-312.996H498.76l-16.595-232.324 584.506-256.294-611.241-4.61z" fill="#ebebec"/><path d="M482.165 861.082l16.595 232.324h567.91V604.788L482.166 861.082zm287.64 575.278l-12.907-195.447H519.042l33.19 370.155 514.439 124.725v-244.102l-296.866-55.33zM432.381 377.995l23.049 222.183 611.24 4.61V377.995H432.382z" fill="#cececf"/></g></svg>