<svg viewBox="0 0 2134 2134" xmlns="http://www.w3.org/2000/svg" fill-rule="evenodd" clip-rule="evenodd" stroke-linejoin="round" stroke-miterlimit="2"><g fill-rule="nonzero"><path d="M333.225 0h1466.88c183.897 0 333.23 149.333 333.23 333.23v1466.876c0 183.896-149.333 333.229-333.23 333.229H333.226C149.33 2133.335 0 1984.002 0 1800.105V333.23C0 149.333 149.33 0 333.225 0z" fill="#2f0f0f"/><path d="M763.305 1148.588h238.508c-5.55-18.775-25.175-62.295-32.429-85.758-7.25-23.47-17.917-42.242-26.45-69.12-8.533-26.88-17.07-53.763-25.175-80.218-8.533-26.879-16.212-52.479-23.467-77.65-7.25-24.746-13.225-47.787-19.2-68.266h-1.279a1285.45 1285.45 0 01-29.441 112.637c-13.226 42.242-26.45 85.334-40.105 129.709-13.654 44.37-27.733 101.116-40.962 138.666zm276.908 150.188H714.667l-66.562 217.6c-1.704 7.675-8.959 13.221-17.063 12.8h-165.12c-9.388 0-12.8-5.125-9.817-15.362L737.28 701.867c2.987-8.533 5.546-17.92 8.533-29.012 3.838-15.788 5.975-32 5.546-48.213-.85-4.696 2.562-9.387 7.254-9.812h226.559c6.4 0 10.241 2.558 11.095 7.25l320.85 893.013c2.988 9.387 0 14.083-8.533 14.083h-183.037c-6.4.85-12.375-3.412-14.08-9.816l-71.254-220.584zm376.747 215.888V870.4c0-8.534 3.841-12.8 11.091-12.8h160.004c7.68 0 11.092 4.266 11.092 12.8v644.263c0 9.387-3.842 14.083-11.092 14.083h-158.72c-8.105 0-12.376-4.696-12.376-14.083zm91.308-753.063c-29.017 1.279-57.171-10.238-77.65-31.146-20.059-21.763-30.721-50.775-29.446-80.213-.85-29.442 10.67-58.029 31.575-78.083 20.908-20.05 49.067-31.146 78.083-30.292 29.438-1.708 58.45 9.388 79.784 30.292 19.629 21.333 29.866 49.496 29.016 78.083 1.28 29.867-9.816 58.88-30.295 80.213-21.759 21.333-51.2 32.425-81.067 31.146z" fill="#f89a1c"/></g></svg>