<svg viewBox="0 0 2134 2134" xmlns="http://www.w3.org/2000/svg" fill-rule="evenodd" clip-rule="evenodd" stroke-linejoin="round" stroke-miterlimit="2"><g fill-rule="nonzero"><path d="M298.07 1920.286L127.057 2.094h1879.222l-171.2 1917.896-769.565 213.344-767.443-213.05z" fill="#e44e26"/><path d="M1066.67 1970.264l621.842-172.4 146.302-1638.932h-768.143v1811.332z" fill="#f16629"/><path d="M1066.67 870.363H755.353l-21.5-240.91h332.819V394.19H476.748l5.63 63.123 57.824 648.308h526.469V870.363zm0 610.995l-1.03.273-262.012-70.75-16.755-187.629H550.709l32.958 369.395 481.92 133.776 1.084-.303v-244.762z" fill="#ebebec"/><path d="M1065.853 870.363v235.257h289.7l-27.306 305.115-262.394 70.822v244.755l482.296-133.665 3.537-39.744 55.29-619.366 5.733-63.174h-546.856zm0-476.173v235.264h568.26l4.723-52.881 10.72-119.261 5.63-63.123h-589.333z" fill="#fff"/></g></svg>