<svg viewBox="0 0 2134 2134" xmlns="http://www.w3.org/2000/svg" fill-rule="evenodd" clip-rule="evenodd" stroke-linejoin="round" stroke-miterlimit="2"><g fill-rule="nonzero"><path d="M333.225 0h1466.88c183.897 0 333.23 149.333 333.23 333.23v1466.876c0 183.896-149.333 333.229-333.23 333.229H333.226C149.33 2133.335 0 1984.002 0 1800.105V333.23C0 149.333 149.33 0 333.225 0z" fill="#450d21"/><path d="M757.759 628.905v885.759c0 9.387-4.267 14.083-12.8 14.083h-161.28c-7.679 0-11.091-4.696-11.091-14.083V631.467c0-7.679 4.267-11.092 12.8-11.092h161.28c5.545-.854 10.666 2.984 11.09 8.53zm616.963 744.109V988.159c-10.238-2.133-20.48-3.412-30.72-4.267-9.813-.85-19.2-1.279-29.013-1.279a214.118 214.118 0 00-98.563 22.613c-67.413 32.004-107.946 101.97-102.825 176.217-.854 30.716 4.267 61.437 14.933 90.025 8.53 23.466 22.188 44.375 39.25 61.866 16.642 16.217 37.121 28.163 59.309 35.413 23.466 7.683 47.787 11.52 72.533 11.092 13.23 0 25.17-.421 36.696-1.28 12.8-.854 25.596-2.558 38.4-5.545zm-93.442 174.504c-64.854.854-129.28-12.37-188.158-39.25-55.042-25.6-101.121-66.988-131.842-119.042-34.133-61.012-50.346-129.704-47.788-199.68-.425-64.85 15.788-128.424 47.788-184.745 32.854-57.175 81.067-104.109 139.52-135.254 68.268-35.413 144.218-52.905 221.443-50.771 4.691 0 10.662.425 18.346.85 7.679.429 23.895 1.283 34.133 2.137V555.096c0-6.404 2.983-9.816 8.53-9.816h163.416c4.267-.425 7.68 2.133 8.533 6.4v823.896c0 15.788.854 33.28 2.134 52.054 1.279 18.771 2.558 35.838 3.412 50.771.43 5.975-2.987 11.521-8.533 14.08-43.517 19.2-89.171 33.283-135.68 42.241-44.8 8.533-90.029 12.796-135.254 12.796z" fill="#ee3868"/></g></svg>