<svg viewBox="0 0 2134 2134" xmlns="http://www.w3.org/2000/svg" fill-rule="evenodd" clip-rule="evenodd" stroke-linejoin="round" stroke-miterlimit="2"><path d="M377.675 0H1755.66c209.108 0 377.675 173.326 377.675 387.363v1358.615c0 214.468-168.992 387.359-377.675 387.359H377.675C168.567 2133.337 0 1960.01 0 1745.978V387.363C0 172.89 168.992 0 377.675 0z" fill="#071f34" fill-rule="nonzero"/><path d="M673.842 734.192v298.73c12.375.854 23.9 1.704 34.567 1.704h46.942c34.566 0 69.562-5.546 102.42-16.217 28.592-8.104 53.346-24.75 72.976-46.942 18.775-22.187 27.737-52.487 27.737-91.75.854-27.741-6.4-55.05-20.483-78.95-14.938-23.046-36.275-40.966-62.304-50.783-32.863-13.23-68.284-18.775-104.984-17.925-23.042 0-43.525 0-60.6.854-17.496-.425-29.87.43-36.27 1.28zm-193.746 752.793v-914.53c0-6.4 2.563-9.813 8.963-9.813 14.937 0 29.446 0 49.925-.858 21.341-.85 43.533-.85 67.429-1.704 23.9-.855 49.933-.855 77.246-1.709 27.737-.85 54.196-.85 81.08-.85 72.974 0 133.574 8.959 183.078 27.738 44.384 14.933 85.35 40.112 119.063 72.97a279.793 279.793 0 0164.867 101.572c13.229 37.129 20.483 75.533 20.483 115.65 0 76.387-17.92 139.546-53.342 189.475-35.42 49.933-85.35 87.058-142.962 108.396-60.6 22.191-127.171 30.3-200.146 30.3-21.338 0-35.421 0-44.384-.854-8.962-.855-21.337-.855-38.408-.855v285.5c.854 6.4-3.412 11.522-9.817 12.376H490.763c-7.254-1.28-10.667-4.692-10.667-12.804zM1707.01 978.722c-26.884-14.08-55.05-23.896-85.355-30.3-32.854-7.255-65.716-11.521-99.429-11.521-17.925-.854-36.275 1.708-53.346 6.4-11.52 2.562-21.337 8.962-27.737 17.925-4.267 7.254-7.254 16.216-7.254 23.9 0 8.108 3.412 16.216 8.958 23.041 8.112 9.817 18.78 17.925 30.304 23.9 20.484 10.671 41.821 20.484 63.159 29.446 48.22 16.217 94.312 38.413 136.987 64.863 29.442 18.78 53.346 43.533 70.413 73.83 14.083 28.59 21.341 59.745 20.483 91.753.858 41.821-11.52 83.646-34.562 118.213-24.755 35.42-59.746 63.158-99.438 78.946-43.53 18.779-96.87 28.592-160.883 28.592-40.971 0-81.084-3.413-120.771-11.521-31.155-5.546-62.309-14.934-90.9-28.592-6.4-3.413-10.667-9.817-9.813-17.07v-154.484c0-2.563.854-6.404 3.413-8.109 2.558-1.708 5.545-.854 8.104.85 34.57 20.488 71.27 34.571 110.104 43.534 33.717 8.962 69.562 13.225 104.98 13.225 33.716 0 57.616-4.263 73.828-12.371 14.084-6.4 23.9-21.338 23.9-37.554 0-12.38-7.254-23.9-21.337-35.421-14.08-11.525-43.53-24.75-87.058-41.821-45.238-16.22-87.059-37.558-126.317-64.013-27.742-19.633-50.784-45.237-67.43-75.537-14.083-28.592-21.333-59.746-20.483-90.471 0-38.408 10.667-74.683 30.3-107.542 22.192-35.42 55.05-64.012 93.459-81.937 41.82-21.338 94.312-31.15 157.47-31.15 36.276 0 73.83 2.558 110.105 8.104 26.883 3.416 52.487 10.67 76.387 20.483 3.413.858 7.255 4.271 8.963 8.113.85 3.412 1.704 7.254 1.704 10.666v145.096c0 3.413-1.704 7.254-4.267 8.963-8.533 1.279-13.229 1.279-16.641-.43z" fill="#55a1d8" fill-rule="nonzero"/></svg>