<svg viewBox="0 0 512 512" xmlns="http://www.w3.org/2000/svg" fill-rule="evenodd" clip-rule="evenodd" stroke-linecap="round" stroke-linejoin="round" stroke-miterlimit="1.5"><path d="M72.566 460.341L30.748 0l450.503.175-41.466 459.816-184.137 52.008-183.082-51.658zm333.309-25.125L440.84 40.937H256.35l1.406 434.868 148.119-40.589zM239.132 98.746h-44.804l-.527 235.969-86.973-23.72.175 53.94 132.13 35.668V98.746z" fill="#d4b830" fill-rule="nonzero"/><path d="M224.373 396.21c-5.798-1.757-34.438-9.487-63.605-17.395l-52.886-14.232v-26.53c0-26.005 0-26.531 2.635-25.653 1.406.527 20.733 5.798 42.872 11.949l40.236 11.069.703-235.443h43.926v149.698c0 118.952-.352 149.699-1.582 149.699-.878-.174-6.5-1.58-12.299-3.161z" fill="#fff" fill-rule="nonzero"/><path d="M107.003 364.935l-.175-53.94s55.522 15.636 86.973 23.72l.527-235.795h44.804v301.683l-132.129-35.668z" fill="#fff" fill-rule="nonzero"/><path d="M418.11 98.92l-144.014.528 1.934 195.733 87.148-14.935-1.23 43.575-87.852 23.368.859 52.184 121.432-30.396L408.51 221.56l-89.608 10.016V152.86l95.582-.351 3.626-53.59z" fill="#fff" stroke="#fff"/><path d="M256.35 40.763h184.49l-34.965 394.279-149.525 40.587V40.763zm140.037 328.214l12.122-147.416-89.608 10.016v-78.715l95.582-.352 3.866-53.764-144.253.702 1.934 195.733 87.148-14.935-1.23 43.574-87.852 23.37.88 53.413 121.411-31.626z" fill="#fdd83c" fill-rule="nonzero"/></svg>